HIERARCHY
ROOT root
{
	OFFSET 0.000000 0.000000 0.000000
	CHANNELS 6 Xposition Yposition Zposition Zrotation Yrotation Xrotation
	JOINT lhip
	{
		OFFSET 0.058581 -0.082280 -0.017664
		CHANNELS 3 Zrotation Yrotation Xrotation
		JOINT lknee
		{
			OFFSET 0.043451 -0.386469 0.008037
			CHANNELS 3 Zrotation Yrotation Xrotation
			JOINT lankle
			{
				OFFSET -0.014790 -0.426874 -0.037428
				CHANNELS 3 Zrotation Yrotation Xrotation
				JOINT ltoe
				{
					OFFSET 0.041054 -0.060286 0.122042
					CHANNELS 3 Zrotation Yrotation Xrotation
					End Site
					{
						OFFSET 0.000000 0.000000 0.000000
					}
				}
			}
		}
	}
	JOINT rhip
	{
		OFFSET -0.060310 -0.090513 -0.013543
		CHANNELS 3 Zrotation Yrotation Xrotation
		JOINT rknee
		{
			OFFSET -0.043257 -0.383688 -0.004843
			CHANNELS 3 Zrotation Yrotation Xrotation
			JOINT rankle
			{
				OFFSET 0.019056 -0.420046 -0.034562
				CHANNELS 3 Zrotation Yrotation Xrotation
				JOINT rtoe
				{
					OFFSET -0.034840 -0.062106 0.130323
					CHANNELS 3 Zrotation Yrotation Xrotation
					End Site
					{
						OFFSET 0.000000 0.000000 0.000000
					}
				}
			}
		}
	}
	JOINT lowerback
	{
		OFFSET 0.004439 0.124404 -0.038385
		CHANNELS 3 Zrotation Yrotation Xrotation
		JOINT upperback
		{
			OFFSET 0.004488 0.137956 0.026820
			CHANNELS 3 Zrotation Yrotation Xrotation
			JOINT chest
			{
				OFFSET -0.002265 0.056032 0.002855
				CHANNELS 3 Zrotation Yrotation Xrotation
				JOINT lowerneck
				{
					OFFSET -0.013390 0.211636 -0.033468
					CHANNELS 3 Zrotation Yrotation Xrotation
					JOINT upperneck
					{
						OFFSET 0.010113 0.088937 0.050410
						CHANNELS 3 Zrotation Yrotation Xrotation
						End Site
						{
							OFFSET 0.000000 0.000000 0.000000
						}
					}
				}
				JOINT lclavicle
				{
					OFFSET 0.071702 0.114000 -0.018898
					CHANNELS 3 Zrotation Yrotation Xrotation
					JOINT lshoulder
					{
						OFFSET 0.122921 0.045205 -0.019046
						CHANNELS 3 Zrotation Yrotation Xrotation
						JOINT lelbow
						{
							OFFSET 0.255332 -0.015649 -0.022946
							CHANNELS 3 Zrotation Yrotation Xrotation
							JOINT lwrist
							{
								OFFSET 0.265709 0.012698 -0.007375
								CHANNELS 3 Zrotation Yrotation Xrotation
								End Site
								{
									OFFSET 0.000000 0.000000 0.000000
								}
							}
						}
					}
				}
				JOINT rclavicle
				{
					OFFSET -0.082954 0.112472 -0.023707
					CHANNELS 3 Zrotation Yrotation Xrotation
					JOINT rshoulder
					{
						OFFSET -0.113228 0.046853 -0.008472
						CHANNELS 3 Zrotation Yrotation Xrotation
						JOINT relbow
						{
							OFFSET -0.260127 -0.014369 -0.031269
							CHANNELS 3 Zrotation Yrotation Xrotation
							JOINT rwrist
							{
								OFFSET -0.269108 0.006794 -0.006027
								CHANNELS 3 Zrotation Yrotation Xrotation
								End Site
								{
									OFFSET 0.000000 0.000000 0.000000
								}
							}
						}
					}
				}
			}
		}
	}
}
MOTION
Frames: 14
Frame Time: 0.033333
-0.075984 -1.656888 0.990117 -179.689841 1.486973 91.140866 3.469548 3.172714 4.049314 -1.396469 -0.550567 -4.332734 1.698376 11.049371 -11.002496 0.000000 -0.000000 0.000000 -4.281648 -4.201239 -0.404082 -0.023243 -3.178306 1.524189 5.742850 -5.781209 -5.335433 0.000000 -0.000000 0.000000 -1.743020 1.980612 -0.651199 1.840200 -1.478526 3.342459 1.247783 -1.001461 -3.758473 1.611112 4.974484 -1.328548 3.249535 1.707386 -7.564917 -29.723011 6.193247 -0.610788 -54.860976 0.685845 12.196000 7.691071 -32.069521 -0.424996 -4.815753 -24.458831 -5.795046 31.169973 1.476565 0.069517 56.950737 -0.338317 12.384866 -12.129160 18.874626 -7.229260 2.456951 12.332901 -1.178182 
-0.075494 -1.656943 0.989829 -179.659711 1.493973 91.147770 3.512242 3.062852 3.975521 -1.407363 -0.512025 -4.200960 1.521811 11.044706 -10.976351 0.000000 -0.000000 0.000000 -4.281697 -4.201936 -0.322807 0.032491 -3.073841 1.363427 5.926338 -5.959152 -5.338691 0.000000 -0.000000 0.000000 -1.568592 1.858520 -0.562836 1.658336 -1.436685 2.945003 1.137378 -1.006971 -3.433491 1.320909 4.045626 -1.654908 3.137260 0.205878 -7.183388 -29.327848 6.379847 -0.568110 -55.351808 0.303334 12.164260 7.853206 -32.008511 -0.401691 -5.133540 -24.498760 -5.768212 30.995962 1.634780 -0.135084 57.430488 -0.519418 12.594968 -12.541407 18.922670 -6.961166 2.719086 12.157017 -1.465906 
-0.075319 -1.656627 0.989964 -179.650021 1.527187 91.173920 3.542724 3.023733 3.959719 -1.365349 -0.470466 -4.167206 1.489049 10.932456 -10.932505 0.000000 -0.000000 0.000000 -4.235729 -4.194796 -0.277834 0.009355 -3.058958 1.314127 5.934186 -5.900350 -5.264751 0.000000 -0.000000 0.000000 -1.478856 1.900026 -0.644559 1.668645 -1.352063 2.956527 1.112920 -0.965625 -3.506083 0.876478 2.678955 -1.584122 2.874622 -1.255510 -7.416534 -29.383981 6.392582 -0.427718 -55.409126 0.130815 12.284414 7.743163 -32.280955 -0.332842 -4.946951 -24.348020 -5.928174 30.718484 1.571926 -0.458783 57.582711 -0.892966 12.545095 -12.487700 19.124627 -6.892043 2.248673 12.128319 -1.722696 
-0.075118 -1.656551 0.990121 -179.592305 1.408382 91.078595 3.418994 3.078381 4.117585 -1.306984 -0.446007 -4.338034 1.562593 10.889867 -11.000961 0.000000 -0.000000 0.000000 -4.422445 -4.369233 -0.118472 0.107709 -3.029228 1.166246 5.916021 -5.765426 -5.302871 0.000000 -0.000000 0.000000 -1.301179 1.818448 -0.753386 1.639284 -1.565323 3.270188 0.819370 -1.037764 -3.677844 0.205743 1.020413 -1.433953 2.373365 -3.446302 -7.487240 -29.425281 6.492498 -0.375058 -55.358726 0.000292 12.324351 7.782698 -32.370371 -0.683353 -4.897364 -24.362955 -5.593994 30.787723 1.859753 -0.313486 57.575146 -0.743869 12.511021 -12.449369 18.937688 -6.918635 1.992645 12.025073 -1.177599 
-0.074814 -1.656472 0.990441 -179.616602 1.398054 91.079215 3.382871 3.034038 4.127189 -1.252561 -0.421933 -4.308035 1.805749 10.918326 -11.152133 0.000000 -0.000000 0.000000 -4.437123 -4.375274 -0.111110 0.153325 -3.122245 1.208693 5.973096 -5.755171 -5.357075 0.000000 -0.000000 0.000000 -1.322602 1.833440 -0.719336 1.570389 -1.459689 2.897116 0.840332 -1.057794 -3.601425 -0.205804 -0.135336 -0.928011 2.393564 -4.614269 -7.578024 -29.246518 6.427749 -0.081985 -55.562507 0.006615 12.340989 7.832808 -32.452427 -0.740698 -5.095808 -24.315823 -5.788593 30.668048 1.840884 -0.347853 57.743345 -0.990967 12.420307 -12.469164 19.043373 -6.840569 2.047801 11.995742 -1.394973 
-0.074323 -1.656920 0.990843 -179.561031 1.350311 91.018204 3.416783 3.046373 4.001968 -1.344857 -0.392577 -4.013423 1.685846 10.743236 -11.101498 0.000000 -0.000000 0.000000 -4.415198 -4.368308 -0.099408 0.090042 -3.167329 1.309752 5.858141 -5.778714 -5.426824 0.000000 -0.000000 0.000000 -1.294121 1.825947 -0.534647 1.543943 -1.410479 2.797706 0.817861 -1.170638 -3.760161 -0.733156 -1.532512 -1.086905 2.207710 -6.271509 -7.374886 -29.505780 6.576768 -0.071567 -55.309392 -0.021818 12.342114 7.907766 -32.637927 -0.628950 -5.299649 -24.201084 -5.690424 30.670377 1.909859 -0.403991 57.766707 -1.116673 12.309767 -12.591466 18.983802 -6.861153 2.298418 11.863391 -1.520997 
-0.073902 -1.656607 0.990891 -179.723789 1.293123 90.967085 3.336501 3.146408 4.139946 -1.264020 -0.324975 -4.123873 1.757247 10.815089 -11.235182 0.000000 -0.000000 0.000000 -4.475638 -4.352969 -0.100621 0.105304 -3.189730 1.359918 5.898338 -5.640871 -5.457791 0.000000 -0.000000 0.000000 -1.202917 1.703886 -0.727141 1.479600 -1.488374 3.039595 0.589268 -1.027571 -3.820205 -1.166189 -2.207880 -0.900504 2.131670 -7.431371 -7.635725 -29.441122 6.696823 -0.090207 -55.223074 -0.011112 12.288721 7.944179 -32.652691 -0.809372 -5.774833 -24.320865 -5.508803 30.795054 2.153204 -0.471325 57.831738 -1.189162 12.267488 -12.613856 18.826528 -6.843276 2.739509 11.998138 -1.473686 
-0.073656 -1.657129 0.990809 -179.547354 1.336136 90.870062 3.390204 2.998729 4.089241 -1.222703 -0.368508 -3.964156 1.764053 10.726219 -11.224382 0.000000 -0.000000 0.000000 -4.447672 -4.417260 0.051531 0.179043 -3.212082 1.239500 5.762961 -5.728681 -5.374827 0.000000 -0.000000 0.000000 -1.281537 1.946773 -0.552651 1.564957 -1.357275 3.116948 0.765745 -1.369219 -3.915140 -1.389756 -3.478903 -1.061404 1.918446 -8.620157 -7.672069 -29.576962 6.582961 0.022090 -55.340121 -0.264587 12.319299 7.988663 -32.538304 -0.915928 -5.760840 -24.183939 -5.500972 30.579525 2.012350 -0.681438 57.843640 -1.240979 12.266753 -12.564418 19.023547 -6.735320 2.579117 11.972595 -1.354212 
-0.073394 -1.656875 0.990699 -179.713090 1.313076 90.955732 3.403315 3.169175 4.053414 -1.261687 -0.318601 -4.002282 1.494128 10.710259 -11.149386 0.000000 -0.000000 0.000000 -4.495089 -4.323614 -0.054569 0.246988 -3.195740 1.290134 5.822427 -5.676147 -5.471087 0.000000 -0.000000 0.000000 -1.309532 1.949287 -0.816708 1.561124 -1.268479 3.277994 0.721142 -1.343873 -4.010964 -1.673038 -3.823562 -0.961701 2.060043 -9.378450 -8.037799 -29.521066 6.419341 0.165920 -55.545925 -0.185946 12.369898 8.438962 -32.252063 -1.404249 -6.045459 -24.182568 -5.253289 30.596399 2.186919 -0.648102 57.807588 -1.433464 12.150427 -12.518660 19.101097 -6.794606 2.630799 12.051726 -1.367885 
-0.072865 -1.656822 0.990706 -179.809071 1.302734 90.992803 3.415792 3.153900 4.031658 -1.273932 -0.271332 -3.981769 1.439726 10.680392 -11.129984 0.000000 -0.000000 0.000000 -4.471462 -4.276421 -0.105378 0.236553 -3.226411 1.250019 5.847904 -5.660072 -5.415749 0.000000 -0.000000 0.000000 -1.274443 1.804518 -0.842820 1.504622 -1.364351 3.178794 0.609796 -1.288756 -3.954219 -1.692488 -4.418446 -1.135006 2.191194 -10.072487 -8.176105 -29.562490 6.615541 0.159564 -55.314253 -0.033626 12.281781 8.467741 -32.368261 -1.480978 -6.136942 -24.288739 -5.176571 30.697823 2.381921 -0.574661 57.842969 -1.448869 12.185399 -12.561027 19.160633 -6.681538 2.455478 12.158062 -1.363689 
-0.071983 -1.656851 0.990785 179.956178 1.345135 90.958179 3.521448 3.261018 4.077738 -1.304784 -0.157371 -3.928791 1.349048 10.645359 -11.031751 0.000000 -0.000000 0.000000 -4.354601 -4.140532 -0.175155 0.209182 -3.201487 1.338011 5.813180 -5.583819 -5.463387 0.000000 -0.000000 0.000000 -1.370835 1.782636 -0.869998 1.537134 -1.291975 3.210153 0.638822 -1.174043 -3.998065 -1.719681 -4.787834 -0.958117 2.278854 -10.676410 -8.342807 -29.531751 6.719312 0.142264 -55.186747 0.058396 12.214863 8.207427 -32.344331 -1.241312 -6.132906 -24.035752 -5.164715 30.823826 2.391275 -0.509658 57.736104 -1.370883 12.134972 -12.457392 19.092689 -6.586350 2.521685 12.095318 -1.256551 
-0.071614 -1.656735 0.990634 179.714243 1.334072 90.913790 3.522605 3.389177 4.224083 -1.310767 -0.051347 -4.048375 1.530947 10.739785 -11.168279 0.000000 -0.000000 0.000000 -4.429852 -4.099859 -0.164226 0.332427 -3.160369 1.404439 5.837114 -5.430635 -5.503815 0.000000 -0.000000 0.000000 -1.469458 1.835116 -0.924335 1.538851 -1.180110 3.333073 0.690263 -1.159280 -4.068888 -1.686465 -5.276766 -0.635297 2.331971 -11.096744 -8.674184 -29.446838 6.668681 0.357205 -55.249416 0.091889 12.088626 8.228861 -32.382254 -1.305353 -6.032451 -23.892984 -5.188911 30.645616 2.376432 -0.429576 57.868780 -1.273702 12.031741 -12.312856 19.076369 -6.489686 2.357177 12.016600 -1.228324 
-0.071351 -1.656339 0.990612 179.618495 1.253907 90.913754 3.437456 3.404979 4.346733 -1.301241 -0.106279 -4.158972 1.353051 10.726635 -11.055293 0.000000 -0.000000 0.000000 -4.544142 -4.097346 -0.106251 0.382692 -3.093804 1.324859 5.936173 -5.436160 -5.412741 0.000000 -0.000000 0.000000 -1.300978 1.557454 -1.036076 1.407984 -1.458834 3.353632 0.345163 -0.908362 -3.913298 -1.537918 -5.548248 -0.960916 2.625675 -11.708130 -8.908452 -29.151571 6.732595 0.474792 -55.293683 0.183212 11.980245 8.471557 -32.175547 -1.653832 -6.186097 -24.132950 -5.063795 30.840852 2.797324 -0.302396 58.054359 -1.267449 12.014067 -12.469394 18.865480 -6.624920 2.030521 12.051268 -1.183367 
-0.071272 -1.656274 0.990611 179.648618 1.344009 90.865294 3.568029 3.465106 4.375783 -1.319339 -0.073864 -4.134094 1.378725 10.715540 -11.080176 0.000000 -0.000000 0.000000 -4.433770 -4.193324 -0.047506 0.384683 -3.045132 1.347119 5.904384 -5.442573 -5.465266 0.000000 -0.000000 0.000000 -1.402217 1.871958 -0.876553 1.426750 -1.086962 3.019276 0.716847 -1.346723 -3.854380 -1.681558 -6.391394 -0.694381 2.560892 -12.009298 -8.769984 -29.398426 6.521570 0.793756 -55.338776 0.129933 11.939450 8.584083 -31.907035 -1.444075 -6.061006 -24.067406 -5.267626 30.418429 2.455981 -0.305470 58.166822 -1.384100 11.940265 -12.379858 19.108547 -6.407418 2.071196 11.884039 -1.612775 
